<?xml version="1.0" standalone="no"?>
<!DOCTYPE svg PUBLIC "-//W3C//DTD SVG 20010904//EN"
 "http://www.w3.org/TR/2001/REC-SVG-20010904/DTD/svg10.dtd">
<svg version="1.0" xmlns="http://www.w3.org/2000/svg"
 width="97.000000pt" height="36.000000pt" viewBox="0 0 97.000000 36.000000"
 preserveAspectRatio="xMidYMid meet">

<g transform="translate(0.000000,36.000000) scale(0.100000,-0.100000)"
fill="#000000" stroke="none">
<path d="M114 350 c-42 -13 -101 -80 -110 -124 -15 -84 29 -160 111 -192 49
-18 101 -13 147 14 37 22 42 40 16 62 -22 17 -23 17 -47 -1 -29 -23 -88 -25
-118 -4 -12 8 -27 31 -33 50 -32 96 69 176 148 118 27 -20 29 -20 50 -3 30 25
28 35 -12 59 -40 25 -108 34 -152 21z"/>
<path d="M440 348 c0 -2 20 -54 45 -117 25 -63 44 -116 42 -118 -2 -2 -35 22
-73 52 l-69 55 -14 -32 c-7 -18 -24 -61 -37 -95 l-24 -63 36 0 c31 0 37 4 50
35 14 35 15 35 78 35 l64 0 12 -35 c11 -32 15 -35 50 -35 l38 0 -63 158 -63
157 -36 3 c-20 2 -36 2 -36 0z"/>
<path d="M670 190 l0 -160 115 0 115 0 0 30 0 30 -80 0 -80 0 0 35 0 35 70 0
70 0 0 30 0 30 -70 0 -70 0 0 35 0 35 80 0 80 0 0 30 0 30 -115 0 -115 0 0
-160z"/>
</g>
</svg>
